<svg width="512" height="512" viewBox="0 0 512 512" fill="none" xmlns="http://www.w3.org/2000/svg">
  <defs>
    <linearGradient id="grad1" x1="0%" y1="0%" x2="100%" y2="100%">
      <stop offset="0%" style="stop-color:#06B6D4;stop-opacity:1" />
      <stop offset="100%" style="stop-color:#8B5CF6;stop-opacity:1" />
    </linearGradient>
    <filter id="glow" x="-20%" y="-20%" width="140%" height="140%">
      <feGaussianBlur stdDeviation="10" result="blur" />
      <feComposite in="SourceGraphic" in2="blur" operator="over" />
    </filter>
  </defs>
  
  <!-- Background Shape (Hexagon-ish) -->
  <path d="M256 40 L460 140 L460 372 L256 472 L52 372 L52 140 Z" fill="url(#grad1)" opacity="0.1" />
  <path d="M256 40 L460 140 L460 372 L256 472 L52 372 L52 140 Z" stroke="url(#grad1)" stroke-width="8" fill="none" />
  
  <!-- Tech Accents -->
  <circle cx="256" cy="40" r="12" fill="#06B6D4" filter="url(#glow)" />
  <circle cx="460" cy="140" r="8" fill="#8B5CF6" />
  <circle cx="460" cy="372" r="8" fill="#8B5CF6" />
  <circle cx="256" cy="472" r="12" fill="#8B5CF6" filter="url(#glow)" />
  <circle cx="52" cy="372" r="8" fill="#06B6D4" />
  <circle cx="52" cy="140" r="8" fill="#06B6D4" />

  <!-- Stylized 'S' -->
  <path d="M320 160 H220 C190 160 170 180 170 210 C170 240 190 260 220 260 H290 C320 260 340 280 340 310 C340 340 320 360 290 360 H190" 
        stroke="white" stroke-width="32" stroke-linecap="round" stroke-linejoin="round" filter="url(#glow)" />
        
  <!-- Circuit Lines -->
  <path d="M256 120 V160" stroke="url(#grad1)" stroke-width="4" opacity="0.6" />
  <path d="M256 360 V400" stroke="url(#grad1)" stroke-width="4" opacity="0.6" />
  <path d="M120 256 H150" stroke="url(#grad1)" stroke-width="4" opacity="0.6" />
  <path d="M360 256 H390" stroke="url(#grad1)" stroke-width="4" opacity="0.6" />
</svg>
